<?xml version="1.0" encoding="UTF-8" standalone="no"?>
<svg
   width="319"
   height="76"
   viewBox="0 0 319 76"
   fill="none"
   version="1.1"
   id="svg18"
   xmlns="http://www.w3.org/2000/svg"
   xmlns:svg="http://www.w3.org/2000/svg">
  <defs
     id="defs22" />
  <path
     d="M84.0914 28.3273H74.8638V53.8909C74.8638 68.5974 81.4 75.9013 94.8569 75.9013C102.162 75.9013 107.449 73.7299 111.294 68.5974C114.658 64.1558 114.85 59.6156 114.85 53.8909V28.3273H105.622V53.6935C105.622 62.1818 101.778 66.6234 94.7608 66.6234C87.8401 66.6234 84.0914 62.1818 84.0914 53.6935V28.3273Z"
     fill="#D81D99"
     id="path6" />
  <path
     d="M124.099 74.7169H133.231V47.7714C133.231 40.8623 137.268 37.2104 144.669 37.2104C145.054 37.2104 145.438 37.2104 145.823 37.2104V27.7351C145.342 27.7351 144.861 27.7351 144.477 27.7351C132.174 27.7351 124.099 35.5325 124.099 47.8701V74.7169Z"
     fill="#D81D99"
     id="path8" />
  <path
     d="m 152.258,74.7169 h 9.131 V 53.2 c 11.342,0.1974 17.11,6.613 17.11,19.3455 0,0.6909 -0.097,1.3818 -0.097,2.1714 h 9.228 c 0,-0.5922 0,-1.0857 0,-1.6779 0,-14.0156 -4.806,-22.5039 -14.61,-25.7611 L 187.63,28.3273 H 176.48 L 161.389,48.1662 V 4.34285 h -9.131 z"
     fill="#d81d99"
     id="path12" />
  <path
     d="m 204.134,28.3273 h -9.228 v 25.5636 c 0,14.7065 6.536,22.0104 19.993,22.0104 7.305,0 12.592,-2.1714 16.437,-7.3039 3.364,-4.4416 3.556,-8.9818 3.556,-14.7065 V 28.3273 h -9.227 v 25.3662 c 0,8.4883 -3.845,12.9299 -10.862,12.9299 -6.921,0 -10.669,-4.4416 -10.669,-12.9299 z"
     fill="#d81d99"
     id="path14" />
  <path
     d="m 240.585,36.5195 h 4.614 v 17.3714 c 0,13.226 7.017,20.6286 19.801,20.826 V 65.2416 C 257.118,64.452 254.234,60.2078 254.234,51.1273 V 36.5195 h 10.189 V 28.3273 H 254.234 V 17.3714 h -9.035 v 10.9559 h -4.614 z"
     fill="#d81d99"
     id="path16" />
  <path
     d="m 40.400037,28.284098 c 9.842566,0 17.459154,7.941221 17.459154,18.770116 0,10.949214 -7.264284,18.288838 -18.044295,18.288838 -10.311898,0 -17.577404,-7.339624 -17.577404,-17.687239 0,-11.550813 8.085923,-19.371715 18.162545,-19.371715 z m 29.410666,14.318165 c -0.688655,-6.911281 -4.100865,-12.51337 -8.788092,-17.32628 -5.389396,-5.414386 -12.068538,-8.181739 -20.27027,-8.181739 -17.342128,0 -29.997029,13.235288 -29.997029,29.83965 0,17.326281 11.951513,29.839651 29.059584,29.839651 10.682985,-1.005563 18.417897,-4.653482 23.369263,-11.456027 3.970572,-5.455059 7.597042,-12.975434 6.626544,-22.715255 z"
     fill="#d81d99"
     id="path1033"
     style="stroke-width:1.21904" />
  <path
     id="rect3181"
     style="fill:#d81d99;stroke:#d81d99;paint-order:stroke fill markers"
     d="m 289.62704,6.8781767 c 4.74165,0 9.3644,3.8861953 8.55893,8.5589293 l -5.54201,32.15076 c -0.80546,4.672734 1.72473,8.715779 -3.01692,8.715779 -4.74164,0 -3.29587,-3.875911 -3.96379,-8.570281 l -4.59513,-32.296258 c -0.66792,-4.694369 3.81728,-8.5589293 8.55892,-8.5589293 z" />
  <circle
     style="fill:#d81d99;fill-opacity:1;stroke:#d81d99;stroke-opacity:1;paint-order:stroke fill markers"
     id="path7050"
     cx="289.51373"
     cy="-67.223457"
     r="5.9363813"
     transform="scale(1,-1)" />
</svg>
