<?xml version="1.0" encoding="UTF-8"?>
<svg width="319" height="76" version="1.1" viewBox="0 0 319 76" xmlns="http://www.w3.org/2000/svg">
 <path d="m84.091 28.327h-9.2276v25.564c0 14.706 6.5362 22.01 19.993 22.01 7.3051 0 12.592-2.1714 16.437-7.3039 3.364-4.4416 3.556-8.9818 3.556-14.706v-25.564h-9.228v25.366c0 8.4883-3.844 12.93-10.861 12.93-6.9207 0-10.669-4.4416-10.669-12.93v-25.366z" fill="#D81D99"/>
 <path d="m124.1 74.717h9.132v-26.946c0-6.9091 4.037-10.561 11.438-10.561h1.154v-9.4753h-1.346c-12.303 0-20.378 7.7974-20.378 20.135v26.847z" fill="#D81D99"/>
 <g fill="#d81d99">
  <path d="m152.26 74.717h9.131v-21.517c11.342 0.1974 17.11 6.613 17.11 19.346 0 0.6909-0.097 1.3818-0.097 2.1714h9.228v-1.6779c0-14.016-4.806-22.504-14.61-25.761l14.61-18.951h-11.15l-15.091 19.839v-43.823h-9.131z"/>
  <path d="m204.13 28.327h-9.228v25.564c0 14.706 6.536 22.01 19.993 22.01 7.305 0 12.592-2.1714 16.437-7.3039 3.364-4.4416 3.556-8.9818 3.556-14.706v-25.564h-9.227v25.366c0 8.4883-3.845 12.93-10.862 12.93-6.921 0-10.669-4.4416-10.669-12.93z"/>
  <path d="m240.58 36.52h4.614v17.371c0 13.226 7.017 20.629 19.801 20.826v-9.4753c-7.882-0.7896-10.766-5.0338-10.766-14.114v-14.608h10.189v-8.1922h-10.189v-10.956h-9.035v10.956h-4.614z"/>
  <path d="m40.4 28.284c9.8426 0 17.459 7.9412 17.459 18.77 0 10.949-7.2643 18.289-18.044 18.289-10.312 0-17.577-7.3396-17.577-17.687 0-11.551 8.0859-19.372 18.163-19.372zm29.411 14.318c-0.68866-6.9113-4.1009-12.513-8.7881-17.326-5.3894-5.4144-12.069-8.1817-20.27-8.1817-17.342 0-29.997 13.235-29.997 29.84 0 17.326 11.952 29.84 29.06 29.84 10.683-1.0056 18.418-4.6535 23.369-11.456 3.9706-5.4551 7.597-12.975 6.6265-22.715z" stroke-width="1.219"/>
  <path d="m289.63 6.8782c4.7416 0 9.3644 3.8862 8.5589 8.5589l-5.542 32.151c-0.80546 4.6727 1.7247 8.7158-3.0169 8.7158-4.7416 0-3.2959-3.8759-3.9638-8.5703l-4.5951-32.296c-0.66792-4.6944 3.8173-8.5589 8.5589-8.5589z" stroke="#d81d99" style="paint-order:stroke fill markers"/>
  <circle transform="scale(1,-1)" cx="289.51" cy="-67.223" r="5.9364" stroke="#d81d99" style="paint-order:stroke fill markers"/>
 </g>
</svg>
